<?xml version="1.0" encoding="UTF-8"?>
<svg width="571px" height="156px" viewBox="0 0 571 156" version="1.1" xmlns="http://www.w3.org/2000/svg" xmlns:xlink="http://www.w3.org/1999/xlink">
    <title>black logo</title>
    <defs>
        <linearGradient x1="39.5938675%" y1="-11.3943151%" x2="59.5358201%" y2="92.668971%" id="linearGradient-1">
            <stop stop-color="#FFD874" offset="0%"></stop>
            <stop stop-color="#E0AA03" offset="100%"></stop>
        </linearGradient>
        <linearGradient x1="50%" y1="9.62678118%" x2="50%" y2="100%" id="linearGradient-2">
            <stop stop-color="#F7B501" offset="0%"></stop>
            <stop stop-color="#FCDB02" offset="100%"></stop>
        </linearGradient>
    </defs>
    <g id="itafcatroy" stroke="none" stroke-width="1" fill="none" fill-rule="evenodd">
        <g id="black-logo" fill-rule="nonzero">
            <g id="Group-Copy-14" transform="translate(128.000000, 11.000000)">
                <path d="M40.2111146,123 C43.4037049,122.603473 45,120.805095 45,117.604867 C45,114.404639 43.4037049,112.598433 40.2111146,112.186251 C37.0691185,112.186251 34.3429749,110.75366 32.0326837,107.888479 C29.7223924,105.023298 28.5672468,101.049014 28.5672468,95.9656278 L28.5672468,77.3881618 C28.5672468,73.6911536 28.1282915,70.5024841 27.2503808,67.8221532 C26.3724701,65.1418222 25.2404274,62.9467236 23.8542527,61.2368574 C22.468078,59.5269911 20.9201828,58.2561445 19.2105673,57.4243177 C17.5009518,56.5924909 15.7682334,56.1765774 14.012412,56.1765774 L3.6161015,56.1765774 C1.20536717,56.9951156 7.6423414e-14,58.6818756 7.6423414e-14,61.2368574 C7.6423414e-14,63.7918392 1.20536717,65.4323865 3.6161015,66.1584995 L9.85388783,66.1584995 C11.2400626,66.1584995 12.3721053,66.505094 13.2500159,67.198283 C14.1279266,67.8914721 14.8441169,68.8157241 15.3985868,69.9710392 C15.9530567,71.1263542 16.3458062,72.4203071 16.5768353,73.8528977 C16.8078644,75.2854884 16.923379,76.6949728 16.923379,78.0813508 L16.923379,98.8770217 C16.8309673,102.389179 17.2237169,105.32368 18.1016275,107.680522 C18.9795382,110.037365 20.0653751,111.908976 21.3591382,113.295354 C22.6529013,114.681732 24.2003035,117.13168 28.5672468,119.502264 C32.9341901,121.872847 37.0691185,123 40.2111146,123 Z" id="Path-Copy-5" fill="url(#linearGradient-1)" transform="translate(22.500000, 89.588289) scale(1, -1) translate(-22.500000, -89.588289) "></path>
                <path d="M40.2111146,66.8234226 C43.4037049,66.4268953 45,64.6285176 45,61.4282893 C45,58.2280611 43.4037049,56.4218559 40.2111146,56.0096737 C37.0691185,56.0096737 34.3429749,54.577083 32.0326837,51.7119017 C29.7223924,48.8467204 28.5672468,44.8724366 28.5672468,39.7890504 L28.5672468,21.2115843 C28.5672468,17.5145762 28.1282915,14.3259066 27.2503808,11.6455757 C26.3724701,8.9652448 25.2404274,6.7701462 23.8542527,5.06027992 C22.468078,3.35041365 20.9201828,2.07956709 19.2105673,1.24774026 C17.5009518,0.415913418 15.7682334,4.24636798e-14 14.012412,4.24636798e-14 L3.6161015,4.24636798e-14 C1.20536717,0.818538164 7.6423414e-14,2.50529814 7.6423414e-14,5.06027992 C7.6423414e-14,7.61526171 1.20536717,9.25580908 3.6161015,9.98192204 L9.85388783,9.98192204 C11.2400626,9.98192204 12.3721053,10.3285166 13.2500159,11.0217056 C14.1279266,11.7148946 14.8441169,12.6391467 15.3985868,13.7944617 C15.9530567,14.9497768 16.3458062,16.2437296 16.5768353,17.6763203 C16.8078644,19.1089109 16.923379,20.5183953 16.923379,21.9047734 L16.923379,42.7004443 C16.8309673,46.212602 17.2237169,49.1471023 18.1016275,51.503945 C18.9795382,53.8607877 20.0653751,55.7323981 21.3591382,57.1187761 C22.6529013,58.5051542 24.2003035,60.9551029 28.5672468,63.3256862 C32.9341901,65.6962695 37.0691185,66.8234226 40.2111146,66.8234226 Z" id="Path-Copy-7" fill="url(#linearGradient-2)"></path>
            </g>
            <g id="Group-Copy-15" transform="translate(22.500000, 72.500000) rotate(-180.000000) translate(-22.500000, -72.500000) translate(0.000000, 11.000000)">
                <path d="M40.2111146,123 C43.4037049,122.603473 45,120.805095 45,117.604867 C45,114.404639 43.4037049,112.598433 40.2111146,112.186251 C37.0691185,112.186251 34.3429749,110.75366 32.0326837,107.888479 C29.7223924,105.023298 28.5672468,101.049014 28.5672468,95.9656278 L28.5672468,77.3881618 C28.5672468,73.6911536 28.1282915,70.5024841 27.2503808,67.8221532 C26.3724701,65.1418222 25.2404274,62.9467236 23.8542527,61.2368574 C22.468078,59.5269911 20.9201828,58.2561445 19.2105673,57.4243177 C17.5009518,56.5924909 15.7682334,56.1765774 14.012412,56.1765774 L3.6161015,56.1765774 C1.20536717,56.9951156 7.6423414e-14,58.6818756 7.6423414e-14,61.2368574 C7.6423414e-14,63.7918392 1.20536717,65.4323865 3.6161015,66.1584995 L9.85388783,66.1584995 C11.2400626,66.1584995 12.3721053,66.505094 13.2500159,67.198283 C14.1279266,67.8914721 14.8441169,68.8157241 15.3985868,69.9710392 C15.9530567,71.1263542 16.3458062,72.4203071 16.5768353,73.8528977 C16.8078644,75.2854884 16.923379,76.6949728 16.923379,78.0813508 L16.923379,98.8770217 C16.8309673,102.389179 17.2237169,105.32368 18.1016275,107.680522 C18.9795382,110.037365 20.0653751,111.908976 21.3591382,113.295354 C22.6529013,114.681732 24.2003035,117.13168 28.5672468,119.502264 C32.9341901,121.872847 37.0691185,123 40.2111146,123 Z" id="Path-Copy-5" fill="url(#linearGradient-1)" transform="translate(22.500000, 89.588289) scale(1, -1) translate(-22.500000, -89.588289) "></path>
                <path d="M40.2111146,66.8234226 C43.4037049,66.4268953 45,64.6285176 45,61.4282893 C45,58.2280611 43.4037049,56.4218559 40.2111146,56.0096737 C37.0691185,56.0096737 34.3429749,54.577083 32.0326837,51.7119017 C29.7223924,48.8467204 28.5672468,44.8724366 28.5672468,39.7890504 L28.5672468,21.2115843 C28.5672468,17.5145762 28.1282915,14.3259066 27.2503808,11.6455757 C26.3724701,8.9652448 25.2404274,6.7701462 23.8542527,5.06027992 C22.468078,3.35041365 20.9201828,2.07956709 19.2105673,1.24774026 C17.5009518,0.415913418 15.7682334,4.24636798e-14 14.012412,4.24636798e-14 L3.6161015,4.24636798e-14 C1.20536717,0.818538164 7.6423414e-14,2.50529814 7.6423414e-14,5.06027992 C7.6423414e-14,7.61526171 1.20536717,9.25580908 3.6161015,9.98192204 L9.85388783,9.98192204 C11.2400626,9.98192204 12.3721053,10.3285166 13.2500159,11.0217056 C14.1279266,11.7148946 14.8441169,12.6391467 15.3985868,13.7944617 C15.9530567,14.9497768 16.3458062,16.2437296 16.5768353,17.6763203 C16.8078644,19.1089109 16.923379,20.5183953 16.923379,21.9047734 L16.923379,42.7004443 C16.8309673,46.212602 17.2237169,49.1471023 18.1016275,51.503945 C18.9795382,53.8607877 20.0653751,55.7323981 21.3591382,57.1187761 C22.6529013,58.5051542 24.2003035,60.9551029 28.5672468,63.3256862 C32.9341901,65.6962695 37.0691185,66.8234226 40.2111146,66.8234226 Z" id="Path-Copy-7" fill="url(#linearGradient-2)"></path>
            </g>
            <path d="M203.318,114 L203.318,79.116 L240.368,79.116 L240.368,68.856 L203.318,68.856 L203.318,43.548 L243.104,43.548 L243.104,33.288 L192.374,33.288 L192.374,114 L203.318,114 Z M271.262,115.368 C275.366,115.368 278.976,114.646 282.092,113.202 C285.208,111.758 287.906,109.288 290.186,105.792 L290.186,105.792 L290.414,105.792 C290.414,108.528 290.528,111.264 290.756,114 L290.756,114 L299.876,114 C299.724,112.556 299.61,111.036 299.534,109.44 C299.458,107.844 299.42,106.096 299.42,104.196 L299.42,104.196 L299.42,76.608 C299.42,74.252 298.983,71.991 298.109,69.825 C297.235,67.659 295.886,65.74 294.062,64.068 C292.238,62.396 289.901,61.066 287.051,60.078 C284.201,59.09 280.8,58.596 276.848,58.596 C273.048,58.596 269.248,59.261 265.448,60.591 C261.648,61.921 258.304,63.916 255.416,66.576 L255.416,66.576 L261.572,72.96 C262.484,72.276 263.434,71.554 264.422,70.794 C265.41,70.034 266.512,69.369 267.728,68.799 C268.944,68.229 270.293,67.754 271.775,67.374 C273.257,66.994 274.986,66.804 276.962,66.804 C279.166,66.804 281.066,67.127 282.662,67.773 C284.258,68.419 285.588,69.293 286.652,70.395 C287.716,71.497 288.514,72.732 289.046,74.1 C289.578,75.468 289.844,76.836 289.844,78.204 L289.844,78.204 L289.844,80.484 L282.32,80.484 C278.216,80.484 274.359,80.807 270.749,81.453 C267.139,82.099 263.985,83.163 261.287,84.645 C258.589,86.127 256.461,88.046 254.903,90.402 C253.345,92.758 252.566,95.684 252.566,99.18 C252.566,101.84 253.06,104.177 254.048,106.191 C255.036,108.205 256.385,109.896 258.095,111.264 C259.805,112.632 261.8,113.658 264.08,114.342 C266.36,115.026 268.754,115.368 271.262,115.368 Z M274.454,107.16 C270.882,107.16 268.051,106.476 265.961,105.108 C263.871,103.74 262.826,101.498 262.826,98.382 C262.826,96.254 263.491,94.506 264.821,93.138 C266.151,91.77 267.861,90.706 269.951,89.946 C272.041,89.186 274.359,88.673 276.905,88.407 C279.451,88.141 281.94,88.008 284.372,88.008 L284.372,88.008 L289.844,88.008 L289.844,91.428 C289.844,93.252 289.578,95.095 289.046,96.957 C288.514,98.819 287.64,100.51 286.424,102.03 C285.208,103.55 283.612,104.785 281.636,105.735 C279.66,106.685 277.266,107.16 274.454,107.16 Z M340.004,115.368 C343.956,115.368 347.699,114.722 351.233,113.43 C354.767,112.138 357.864,110.01 360.524,107.046 L360.524,107.046 L353.228,99.75 C351.48,101.726 349.58,103.227 347.528,104.253 C345.476,105.279 343.006,105.792 340.118,105.792 C337.458,105.792 335.064,105.317 332.936,104.367 C330.808,103.417 328.984,102.106 327.464,100.434 C325.944,98.762 324.766,96.805 323.93,94.563 C323.094,92.321 322.676,89.946 322.676,87.438 C322.676,84.93 323.037,82.517 323.759,80.199 C324.481,77.881 325.545,75.829 326.951,74.043 C328.357,72.257 330.105,70.851 332.195,69.825 C334.285,68.799 336.736,68.286 339.548,68.286 C342.436,68.286 344.925,68.799 347.015,69.825 C349.105,70.851 351.1,72.352 353,74.328 L353,74.328 L360.752,67.26 C358.092,64.372 354.957,62.225 351.347,60.819 C347.737,59.413 343.956,58.71 340.004,58.71 C335.748,58.71 331.891,59.413 328.433,60.819 C324.975,62.225 322.011,64.182 319.541,66.69 C317.071,69.198 315.152,72.2 313.784,75.696 C312.416,79.192 311.732,83.03 311.732,87.21 C311.732,91.39 312.416,95.209 313.784,98.667 C315.152,102.125 317.09,105.089 319.598,107.559 C322.106,110.029 325.089,111.948 328.547,113.316 C332.005,114.684 335.824,115.368 340.004,115.368 Z M389.366,115.368 C390.43,115.368 391.931,115.235 393.869,114.969 C395.807,114.703 397.384,114.228 398.6,113.544 L398.6,113.544 L398.6,104.196 C397.536,104.804 396.358,105.222 395.066,105.45 C393.774,105.678 392.52,105.792 391.304,105.792 C389.328,105.792 387.827,105.431 386.801,104.709 C385.775,103.987 385.015,103.037 384.521,101.859 C384.027,100.681 383.742,99.351 383.666,97.869 C383.59,96.387 383.552,94.886 383.552,93.366 L383.552,93.366 L383.552,68.856 L398.258,68.856 L398.258,59.964 L383.552,59.964 L383.552,44.802 L373.292,44.802 L373.292,59.964 L361.436,59.964 L361.436,68.856 L373.292,68.856 L373.292,97.014 C373.292,99.218 373.387,101.403 373.577,103.569 C373.767,105.735 374.375,107.692 375.401,109.44 C376.427,111.188 378.023,112.613 380.189,113.715 C382.355,114.817 385.414,115.368 389.366,115.368 Z M437.588,115.368 C441.616,115.368 445.378,114.627 448.874,113.145 C452.37,111.663 455.41,109.649 457.994,107.103 C460.578,104.557 462.611,101.555 464.093,98.097 C465.575,94.639 466.316,90.934 466.316,86.982 C466.316,83.03 465.575,79.344 464.093,75.924 C462.611,72.504 460.578,69.502 457.994,66.918 C455.41,64.334 452.37,62.301 448.874,60.819 C445.378,59.337 441.616,58.596 437.588,58.596 C433.56,58.596 429.798,59.337 426.302,60.819 C422.806,62.301 419.766,64.334 417.182,66.918 C414.598,69.502 412.565,72.504 411.083,75.924 C409.601,79.344 408.86,83.03 408.86,86.982 C408.86,90.934 409.601,94.639 411.083,98.097 C412.565,101.555 414.598,104.557 417.182,107.103 C419.766,109.649 422.806,111.663 426.302,113.145 C429.798,114.627 433.56,115.368 437.588,115.368 Z M437.588,105.792 C434.852,105.792 432.382,105.317 430.178,104.367 C427.974,103.417 426.112,102.125 424.592,100.491 C423.072,98.857 421.894,96.881 421.058,94.563 C420.222,92.245 419.804,89.718 419.804,86.982 C419.804,84.246 420.222,81.719 421.058,79.401 C421.894,77.083 423.072,75.107 424.592,73.473 C426.112,71.839 427.974,70.547 430.178,69.597 C432.382,68.647 434.852,68.172 437.588,68.172 C440.324,68.172 442.794,68.647 444.998,69.597 C447.202,70.547 449.064,71.839 450.584,73.473 C452.104,75.107 453.282,77.083 454.118,79.401 C454.954,81.719 455.372,84.246 455.372,86.982 C455.372,89.718 454.954,92.245 454.118,94.563 C453.282,96.881 452.104,98.857 450.584,100.491 C449.064,102.125 447.202,103.417 444.998,104.367 C442.794,105.317 440.324,105.792 437.588,105.792 Z M489.458,114 L489.458,86.868 C489.458,80.94 490.788,76.57 493.448,73.758 C496.108,70.946 499.946,69.54 504.962,69.54 C505.798,69.54 506.634,69.616 507.47,69.768 C508.306,69.92 509.142,70.11 509.978,70.338 L509.978,70.338 L510.434,59.28 C509.066,58.824 507.546,58.596 505.874,58.596 C504.202,58.596 502.53,58.843 500.858,59.337 C499.186,59.831 497.647,60.496 496.241,61.332 C494.835,62.168 493.562,63.175 492.422,64.353 C491.282,65.531 490.37,66.842 489.686,68.286 L489.686,68.286 L489.458,68.286 L489.458,59.964 L479.198,59.964 L479.198,114 L489.458,114 Z M525.254,141.36 C528.066,141.36 530.441,140.98 532.379,140.22 C534.317,139.46 535.97,138.396 537.338,137.028 C538.706,135.66 539.884,134.007 540.872,132.069 C541.86,130.131 542.81,127.984 543.722,125.628 L543.722,125.628 L569.372,59.964 L558.314,59.964 L543.038,102.144 L542.81,102.144 L526.736,59.964 L514.88,59.964 L537.338,114.342 L534.032,122.892 C533.5,124.26 532.968,125.476 532.436,126.54 C531.904,127.604 531.239,128.535 530.441,129.333 C529.643,130.131 528.693,130.739 527.591,131.157 C526.489,131.575 525.14,131.784 523.544,131.784 C521.492,131.784 519.44,131.366 517.388,130.53 L517.388,130.53 L516.134,139.878 C517.578,140.486 519.079,140.885 520.637,141.075 C522.195,141.265 523.734,141.36 525.254,141.36 Z" id="Factory" fill="#141414"></path>
            <path d="M63.1894237,109.712 L63.1894237,45.712 L63.1894237,45.712 L51.664,45.712 L51.664,115.712 L57.1894237,115.712 C60.5031322,115.712 63.1894237,113.025708 63.1894237,109.712 Z" id="Path-Copy-26" fill="#FCD903"></path>
            <path d="M63.1894237,35.712 L63.1894237,30.712 L63.1894237,30.712 L51.664,30.712 L51.664,41.712 L57.1894237,41.712 C60.5031322,41.712 63.1894237,39.0257085 63.1894237,35.712 Z" id="Path-Copy-27" fill="#F8B702"></path>
            <path d="M106.490305,110 L106.490305,41.8050847 L106.490305,41.8050847 L123.863186,41.8050847 C127.176895,41.8050847 129.863186,39.1187932 129.863186,35.8050847 L129.863186,31 L129.863186,31 L71.592,31 L71.592,41.8050847 L94.9648814,41.8050847 L94.9648814,116 L100.490305,116 C103.804014,116 106.490305,113.313708 106.490305,110 Z" id="Path-Copy-28" fill="#F8B702"></path>
        </g>
    </g>
</svg>